<?xml version="1.0" encoding="UTF-8" standalone="no"?>
<!DOCTYPE svg PUBLIC "-//W3C//DTD SVG 1.1//EN" "http://www.w3.org/Graphics/SVG/1.1/DTD/svg11.dtd">
<svg width="100%" height="100%" viewBox="0 0 585 1527" version="1.1" xmlns="http://www.w3.org/2000/svg" xmlns:xlink="http://www.w3.org/1999/xlink" xml:space="preserve" xmlns:serif="http://www.serif.com/" style="fill-rule:evenodd;clip-rule:evenodd;stroke-linejoin:round;stroke-miterlimit:1.41421;">
    <g transform="matrix(1,0,0,1,-5.40791,-18.2092)">
        <g transform="matrix(1,0,0,1,969.044,0.181853)">
            <g transform="matrix(1,0,0,1,-969.044,-0.181853)">
                <g transform="matrix(1.11577,0,0,1.11577,-98.3023,685.556)">
                    <text x="102.343px" y="139.421px" style="font-family:'AmaticSC-Bold', 'Amatic SC';font-weight:700;font-size:115.957px;">The Lion, Woke,</text>
                </g>
                <g transform="matrix(0.741625,0,0,0.741625,-64.7006,392.034)">
                    <text x="102.343px" y="139.421px" style="font-family:'AmaticSC-Bold', 'Amatic SC';font-weight:700;font-size:115.957px;">The Lion, Woke,</text>
                </g>
                <g transform="matrix(0.735677,0,0,0.741625,-51.967,1022.87)">
                    <text x="102.343px" y="139.421px" style="font-family:'AmaticSC-Bold', 'Amatic SC';font-weight:700;font-size:115.957px;">The Lion, Woke,</text>
                </g>
                <g transform="matrix(0.95182,0,0,0.959514,-77.1686,1306.12)">
                    <text x="102.343px" y="139.421px" style="font-family:'AmaticSC-Bold', 'Amatic SC';font-weight:700;font-size:115.957px;">The Lion, Woke,</text>
                </g>
                <g transform="matrix(0.848879,0,0,0.855741,-63.5786,-23.9976)">
                    <text x="102.343px" y="139.421px" style="font-family:'AmaticSC-Bold', 'Amatic SC';font-weight:700;font-size:115.957px;">The Lion, Woke,</text>
                </g>
                <g transform="matrix(0.774653,0,0,0.774653,-12.7542,355.932)">
                    <text x="23.19px" y="312.181px" style="font-family:'AmaticSC-Bold', 'Amatic SC';font-weight:700;font-size:127.953px;">The Lioness, Woke,</text>
                </g>
                <g transform="matrix(0.774653,0,0,0.774653,2.40023,695.392)">
                    <text x="23.19px" y="312.181px" style="font-family:'AmaticSC-Bold', 'Amatic SC';font-weight:700;font-size:127.953px;">The Lioness, Woke,</text>
                </g>
                <g transform="matrix(0.710616,0,0,0.710616,-10.4375,77.2351)">
                    <text x="23.19px" y="312.181px" style="font-family:'AmaticSC-Bold', 'Amatic SC';font-weight:700;font-size:127.953px;">The Lioness, Woke,</text>
                </g>
                <g transform="matrix(0.85475,0,0,0.85475,4.36849,1064.95)">
                    <text x="23.19px" y="312.181px" style="font-family:'AmaticSC-Bold', 'Amatic SC';font-weight:700;font-size:127.953px;">The Lioness, Woke,</text>
                </g>
                <g transform="matrix(0.987358,0,0,0.987358,-79.9751,235.451)">
                    <text x="91.197px" y="494.035px" style="font-family:'AmaticSC-Bold', 'Amatic SC';font-weight:700;font-size:127.953px;">The Cub, Woke,</text>
                </g>
                <g transform="matrix(0.739188,0,0,0.703438,-51.2176,1188.38)">
                    <text x="91.197px" y="494.035px" style="font-family:'AmaticSC-Bold', 'Amatic SC';font-weight:700;font-size:127.953px;">The Cub, Woke,</text>
                </g>
                <g transform="matrix(0.756809,-2.65933e-18,2.65933e-18,0.756809,-46.7673,661.273)">
                    <text x="91.197px" y="494.035px" style="font-family:'AmaticSC-Bold', 'Amatic SC';font-weight:700;font-size:127.953px;">The Cub, Woke,</text>
                </g>
                <g transform="matrix(0.811766,-2.85244e-18,2.85244e-18,0.811766,-51.7932,827.502)">
                    <text x="91.197px" y="494.035px" style="font-family:'AmaticSC-Bold', 'Amatic SC';font-weight:700;font-size:127.953px;">The Cub, Woke,</text>
                </g>
                <g transform="matrix(0.605408,0,0,0.605408,-33.0823,-102.401)">
                    <text x="91.197px" y="494.035px" style="font-family:'AmaticSC-Bold', 'Amatic SC';font-weight:700;font-size:127.953px;">The Cub, Woke,</text>
                </g>
                <g transform="matrix(0.722792,1.19338e-32,-1.08024e-32,0.868777,-50.7419,-26.8038)">
                    <text x="91.197px" y="494.035px" style="font-family:'AmaticSC-Bold', 'Amatic SC';font-weight:700;font-size:127.953px;">The Cub, Woke,</text>
                </g>
            </g>
        </g>
    </g>
</svg>
